<svg width="14" height="14" viewBox="0 0 14 14" fill="none" xmlns="http://www.w3.org/2000/svg">
<path d="M5.0701 2.63198C5.46877 1.46531 7.08077 1.42998 7.55343 2.52598L7.59343 2.63265L8.13143 4.20598C8.25473 4.5668 8.45397 4.89699 8.71572 5.17426C8.97747 5.45154 9.29564 5.66945 9.64877 5.81331L9.79343 5.86731L11.3668 6.40465C12.5334 6.80331 12.5688 8.41531 11.4734 8.88798L11.3668 8.92798L9.79343 9.46598C9.43249 9.58919 9.10217 9.7884 8.82478 10.0502C8.54738 10.3119 8.32936 10.6301 8.18543 10.9833L8.13143 11.1273L7.5941 12.7013C7.19543 13.868 5.58343 13.9033 5.11143 12.808L5.0701 12.7013L4.53277 11.128C4.40955 10.767 4.21035 10.4367 3.94859 10.1593C3.68684 9.88193 3.36863 9.66391 3.01543 9.51998L2.87143 9.46598L1.2981 8.92865C0.130767 8.52998 0.0954335 6.91798 1.19143 6.44598L1.2981 6.40465L2.87143 5.86731C3.23226 5.74402 3.56244 5.54478 3.83972 5.28303C4.11699 5.02128 4.33491 4.70311 4.47877 4.34998L4.53277 4.20598L5.0701 2.63198ZM11.6654 0.333313C11.7902 0.333313 11.9124 0.368299 12.0182 0.434294C12.124 0.50029 12.2092 0.594648 12.2641 0.706646L12.2961 0.784646L12.5294 1.46865L13.2141 1.70198C13.3391 1.74444 13.4487 1.82306 13.5289 1.92786C13.6092 2.03266 13.6565 2.15893 13.665 2.29066C13.6734 2.4224 13.6425 2.55367 13.5762 2.66784C13.51 2.78201 13.4113 2.87394 13.2928 2.93198L13.2141 2.96398L12.5301 3.19731L12.2968 3.88198C12.2542 4.00693 12.1756 4.11645 12.0707 4.19664C11.9659 4.27684 11.8396 4.32411 11.7079 4.33246C11.5761 4.34081 11.4449 4.30988 11.3308 4.24357C11.2166 4.17726 11.1247 4.07856 11.0668 3.95998L11.0348 3.88198L10.8014 3.19798L10.1168 2.96465C9.99178 2.92218 9.88221 2.84357 9.80195 2.73877C9.72169 2.63397 9.67434 2.5077 9.66592 2.37597C9.65749 2.24423 9.68836 2.11296 9.75462 1.99879C9.82088 1.88462 9.91954 1.79269 10.0381 1.73465L10.1168 1.70265L10.8008 1.46931L11.0341 0.784646C11.0791 0.65293 11.1641 0.538585 11.2773 0.457646C11.3905 0.376706 11.5263 0.333229 11.6654 0.333313Z" fill="black"/>
</svg>
